<svg width="16" height="16" viewBox="0 0 16 16" fill="none" xmlns="http://www.w3.org/2000/svg">
<path d="M2.11328 4.95996L7.99994 8.36662L13.8466 4.97994" stroke="#0084FF" stroke-width="1.5" stroke-linecap="round" stroke-linejoin="round"/>
<path d="M8 14.407V8.36035" stroke="#0084FF" stroke-width="1.5" stroke-linecap="round" stroke-linejoin="round"/>
<path d="M6.6204 1.65301L3.0604 3.63303C2.25374 4.0797 1.59375 5.19968 1.59375 6.11968V9.88637C1.59375 10.8064 2.25374 11.9264 3.0604 12.373L6.6204 14.353C7.3804 14.773 8.62706 14.773 9.38706 14.353L12.9471 12.373C13.7537 11.9264 14.4137 10.8064 14.4137 9.88637V6.11968C14.4137 5.19968 13.7537 4.0797 12.9471 3.63303L9.38706 1.65301C8.6204 1.22634 7.3804 1.22634 6.6204 1.65301Z" stroke="#0084FF" stroke-width="1.5" stroke-linecap="round" stroke-linejoin="round"/>
<path d="M11.3335 8.82674V6.38676L5.00684 2.7334" stroke="#0084FF" stroke-width="1.5" stroke-linecap="round" stroke-linejoin="round"/>
</svg>
