<svg width="18" height="18" viewBox="0 0 18 18" fill="none" xmlns="http://www.w3.org/2000/svg">
<path d="M6.75 16.5H11.25C15 16.5 16.5 15 16.5 11.25V6.75C16.5 3 15 1.5 11.25 1.5H6.75C3 1.5 1.5 3 1.5 6.75V11.25C1.5 15 3 16.5 6.75 16.5Z" stroke="#0084FF" stroke-width="1.5" stroke-linecap="round" stroke-linejoin="round"/>
<path d="M11.6777 13.875V10.95" stroke="#0084FF" stroke-width="1.5" stroke-miterlimit="10" stroke-linecap="round" stroke-linejoin="round"/>
<path d="M11.6777 5.5875V4.125" stroke="#0084FF" stroke-width="1.5" stroke-miterlimit="10" stroke-linecap="round" stroke-linejoin="round"/>
<path d="M11.6775 9.48752C12.7545 9.48752 13.6275 8.61448 13.6275 7.53752C13.6275 6.46057 12.7545 5.58752 11.6775 5.58752C10.6006 5.58752 9.72754 6.46057 9.72754 7.53752C9.72754 8.61448 10.6006 9.48752 11.6775 9.48752Z" stroke="#0084FF" stroke-width="1.5" stroke-miterlimit="10" stroke-linecap="round" stroke-linejoin="round"/>
<path d="M6.32227 13.875V12.4125" stroke="#0084FF" stroke-width="1.5" stroke-miterlimit="10" stroke-linecap="round" stroke-linejoin="round"/>
<path d="M6.32227 7.05V4.125" stroke="#0084FF" stroke-width="1.5" stroke-miterlimit="10" stroke-linecap="round" stroke-linejoin="round"/>
<path d="M6.32207 12.4125C7.39903 12.4125 8.27207 11.5395 8.27207 10.4625C8.27207 9.38556 7.39903 8.51251 6.32207 8.51251C5.24512 8.51251 4.37207 9.38556 4.37207 10.4625C4.37207 11.5395 5.24512 12.4125 6.32207 12.4125Z" stroke="#0084FF" stroke-width="1.5" stroke-miterlimit="10" stroke-linecap="round" stroke-linejoin="round"/>
</svg>
