<svg width="10" height="10" viewBox="0 0 10 10" fill="none" xmlns="http://www.w3.org/2000/svg">
<g clip-path="url(#clip0_509_2726)">
<path d="M4.57129 0.833496H3.73796C1.65462 0.833496 0.821289 1.66683 0.821289 3.75016V6.25016C0.821289 8.3335 1.65462 9.16683 3.73796 9.16683H6.23796C8.32129 9.16683 9.15462 8.3335 9.15462 6.25016V5.41683" stroke="#292D32" stroke-linecap="round" stroke-linejoin="round"/>
<path d="M9.11693 1.4831C8.60443 2.76227 7.31693 4.50393 6.24193 5.36643L5.58359 5.89143C5.50026 5.95393 5.41693 6.00393 5.32109 6.04143C5.32109 5.97893 5.31693 5.91643 5.30859 5.84977C5.27109 5.5706 5.14609 5.3081 4.92109 5.08727C4.69193 4.8581 4.41693 4.72893 4.13359 4.69143C4.06693 4.68727 4.00026 4.6831 3.93359 4.68727C3.97109 4.5831 4.02526 4.48727 4.09609 4.4081L4.62109 3.74977C5.48359 2.67477 7.22943 1.37893 8.50443 0.866433C8.70026 0.791433 8.89193 0.849766 9.01276 0.9706C9.13776 1.0956 9.19609 1.28727 9.11693 1.4831Z" stroke="#292D32" stroke-linecap="round" stroke-linejoin="round"/>
<path d="M5.32471 6.03753C5.32471 6.4042 5.18305 6.7542 4.92055 7.02087C4.71638 7.22503 4.44138 7.3667 4.11221 7.40837L3.29138 7.49587C2.84555 7.54587 2.46221 7.1667 2.51221 6.71253L2.59971 5.8917C2.67888 5.16253 3.28721 4.69587 3.93721 4.68337C4.00388 4.6792 4.07055 4.68337 4.13721 4.68753C4.42055 4.72503 4.69555 4.8542 4.92471 5.08337C5.14971 5.30837 5.27471 5.5667 5.31221 5.84587C5.32055 5.91253 5.32471 5.9792 5.32471 6.03753Z" stroke="#292D32" stroke-linecap="round" stroke-linejoin="round"/>
<path d="M6.59186 4.99176C6.59186 4.12093 5.8877 3.4126 5.0127 3.4126" stroke="#292D32" stroke-linecap="round" stroke-linejoin="round"/>
</g>
<defs>
<clipPath id="clip0_509_2726">
<rect width="10" height="10" fill="white"/>
</clipPath>
</defs>
</svg>
