<svg width="10" height="10" viewBox="0 0 10 10" fill="none" xmlns="http://www.w3.org/2000/svg">
<path d="M8.75 2.49154C7.3625 2.35404 5.96667 2.2832 4.575 2.2832C3.75 2.2832 2.925 2.32487 2.1 2.4082L1.25 2.49154" stroke="#CA0306" stroke-linecap="round" stroke-linejoin="round"/>
<path d="M3.54199 2.071L3.63366 1.52516C3.70033 1.12933 3.75033 0.833496 4.45449 0.833496H5.54616C6.25033 0.833496 6.30449 1.146 6.36699 1.52933L6.45866 2.071" stroke="#CA0306" stroke-linecap="round" stroke-linejoin="round"/>
<path d="M7.85384 3.80811L7.58301 8.00394C7.53717 8.6581 7.49967 9.16644 6.33717 9.16644H3.66217C2.49967 9.16644 2.46217 8.6581 2.41634 8.00394L2.14551 3.80811" stroke="#CA0306" stroke-linecap="round" stroke-linejoin="round"/>
<path d="M4.30371 6.875H5.69121" stroke="#CA0306" stroke-linecap="round" stroke-linejoin="round"/>
<path d="M3.95801 5.2085H6.04134" stroke="#CA0306" stroke-linecap="round" stroke-linejoin="round"/>
</svg>
