<svg width="10" height="10" viewBox="0 0 10 10" fill="none" xmlns="http://www.w3.org/2000/svg">
<path d="M4.48015 7.02539V7.87124C4.48015 8.5879 3.81348 9.16706 2.99265 9.16706C2.17182 9.16706 1.50098 8.5879 1.50098 7.87124V7.02539C1.50098 7.74206 2.16765 8.25039 2.99265 8.25039C3.81348 8.25039 4.48015 7.73789 4.48015 7.02539Z" stroke="#292D32" stroke-linecap="round" stroke-linejoin="round"/>
<path d="M4.47942 5.87906C4.47942 6.08739 4.42108 6.27905 4.32108 6.44572C4.07525 6.84989 3.57108 7.10406 2.98774 7.10406C2.40441 7.10406 1.90024 6.84572 1.6544 6.44572C1.5544 6.27905 1.49609 6.08739 1.49609 5.87906C1.49609 5.52073 1.66275 5.19989 1.92942 4.96656C2.20025 4.72906 2.57107 4.5874 2.98357 4.5874C3.39607 4.5874 3.76692 4.73322 4.03775 4.96656C4.31275 5.19572 4.47942 5.52073 4.47942 5.87906Z" stroke="#292D32" stroke-linecap="round" stroke-linejoin="round"/>
<path d="M4.48015 5.87932V7.02516C4.48015 7.74182 3.81348 8.25016 2.99265 8.25016C2.17182 8.25016 1.50098 7.73766 1.50098 7.02516V5.87932C1.50098 5.16266 2.16765 4.5835 2.99265 4.5835C3.40515 4.5835 3.776 4.72932 4.04683 4.96265C4.3135 5.19598 4.48015 5.52099 4.48015 5.87932Z" stroke="#292D32" stroke-linecap="round" stroke-linejoin="round"/>
<path d="M9.16643 4.57098V5.42934C9.16643 5.6585 8.9831 5.84599 8.74976 5.85432H7.93309C7.48309 5.85432 7.0706 5.52515 7.0331 5.07515C7.0081 4.81265 7.10809 4.56682 7.28309 4.39599C7.43726 4.23765 7.64976 4.146 7.88309 4.146H8.74976C8.9831 4.15433 9.16643 4.34181 9.16643 4.57098Z" stroke="#292D32" stroke-linecap="round" stroke-linejoin="round"/>
<path d="M0.833008 4.37516V3.54183C0.833008 2.4085 1.51634 1.61683 2.57884 1.4835C2.68718 1.46683 2.79967 1.4585 2.91634 1.4585H6.66634C6.77467 1.4585 6.87884 1.46266 6.97884 1.47932C8.05384 1.60432 8.74967 2.40016 8.74967 3.54183V4.146H7.883C7.64967 4.146 7.43717 4.23766 7.283 4.39599C7.108 4.56682 7.00801 4.81266 7.03301 5.07516C7.07051 5.52516 7.483 5.85432 7.933 5.85432H8.74967V6.4585C8.74967 7.7085 7.91634 8.54183 6.66634 8.54183H5.62467" stroke="#292D32" stroke-linecap="round" stroke-linejoin="round"/>
</svg>
