<svg width="10" height="10" viewBox="0 0 10 10" fill="none" xmlns="http://www.w3.org/2000/svg">
<path d="M6.49212 4.99997C6.49212 5.82497 5.82546 6.49163 5.00046 6.49163C4.17546 6.49163 3.50879 5.82497 3.50879 4.99997C3.50879 4.17497 4.17546 3.5083 5.00046 3.5083C5.82546 3.5083 6.49212 4.17497 6.49212 4.99997Z" stroke="#292D32" stroke-linecap="round" stroke-linejoin="round"/>
<path d="M4.99993 8.44564C6.47077 8.44564 7.8416 7.57897 8.79577 6.07897C9.17077 5.49147 9.17077 4.50397 8.79577 3.91647C7.8416 2.41647 6.47077 1.5498 4.99993 1.5498C3.5291 1.5498 2.15827 2.41647 1.2041 3.91647C0.829102 4.50397 0.829102 5.49147 1.2041 6.07897C2.15827 7.57897 3.5291 8.44564 4.99993 8.44564Z" stroke="#292D32" stroke-linecap="round" stroke-linejoin="round"/>
</svg>
