<svg width="10" height="10" viewBox="0 0 10 10" fill="none" xmlns="http://www.w3.org/2000/svg">
<path d="M3.02051 2.91683H6.97884V2.0835C6.97884 1.25016 6.66634 0.833496 5.72884 0.833496H4.27051C3.33301 0.833496 3.02051 1.25016 3.02051 2.0835V2.91683Z" stroke="#292D32" stroke-miterlimit="10" stroke-linecap="round" stroke-linejoin="round"/>
<path d="M6.66634 6.25V7.91667C6.66634 8.75 6.24967 9.16667 5.41634 9.16667H4.58301C3.74967 9.16667 3.33301 8.75 3.33301 7.91667V6.25H6.66634Z" stroke="#292D32" stroke-miterlimit="10" stroke-linecap="round" stroke-linejoin="round"/>
<path d="M8.75 4.1665V6.24984C8.75 7.08317 8.33333 7.49984 7.5 7.49984H6.66667V6.24984H3.33333V7.49984H2.5C1.66667 7.49984 1.25 7.08317 1.25 6.24984V4.1665C1.25 3.33317 1.66667 2.9165 2.5 2.9165H7.5C8.33333 2.9165 8.75 3.33317 8.75 4.1665Z" stroke="#292D32" stroke-miterlimit="10" stroke-linecap="round" stroke-linejoin="round"/>
<path d="M7.08366 6.25H6.57949H2.91699" stroke="#292D32" stroke-miterlimit="10" stroke-linecap="round" stroke-linejoin="round"/>
<path d="M2.91699 4.5835H4.16699" stroke="#292D32" stroke-miterlimit="10" stroke-linecap="round" stroke-linejoin="round"/>
</svg>
